When Alcatraz re-opens, the first inmate scheduled for the electric chair has vital information on the whereabouts of the proceeds of his last crime. Unwilling to let this fotune go up in smoke, a criminal commando (Chestnut) infiltrates the prison to find out where the $200 million stash of gold is hidden. However, an undercover FBI agent (Seagal) becomes the "fly-in-the-ointment" of this would-be raid...




ENG/RUSSIAN/HUNGARIAN AUDIO






Format                           : MPEG-4
Format profile                   : Base Media / Version 2
Codec ID                         : mp42
File size                        : 899 MiB
Duration                         : 1h 34mn
Overall bit rate                 : 1 329 Kbps
Encoded date                     : UTC 2010-01-03 17:11:53
Tagged date                      : UTC 2010-01-03 21:55:32
Writing application              : HandBrake 0.9.3 2008112300

Video
ID                               : 1
Format                           : AVC
Format/Info                      : Advanced Video Codec
Format profile                   : Main@L4.0
Format settings, CABAC           : Yes
Format settings, ReFrames        : 3 frames
Codec ID                         : avc1
Codec ID/Info                    : Advanced Video Coding
Duration                         : 1h 34mn
Bit rate mode                    : Variable
Bit rate                         : 843 Kbps
Width                            : 712 pixels
Height                           : 552 pixels
Display aspect ratio             : 16:9
Frame rate mode                  : Variable
Frame rate                       : 25.000 fps
Minimum frame rate               : 12.500 fps
Maximum frame rate               : 25.000 fps
Resolution                       : 24 bits
Colorimetry                      : 4:2:0
Scan type                        : Progressive
Bits/(Pixel*Frame)               : 0.086
Stream size                      : 570 MiB (63%)
Writing library                  : x264 core 65


Audio #1
ID                               : 2
Format                           : AAC
Format/Info                      : Advanced Audio Codec
Format version                   : Version 4
Format profile                   : LC
Format settings, SBR             : No
Codec ID                         : 40
Duration                         : 1h 34mn
Bit rate mode                    : Variable
Bit rate                         : 160 Kbps
Maximum bit rate                 : 258 Kbps
Channel(s)                       : 2 channels
Channel positions                : L R
Sampling rate                    : 48.0 KHz
Resolution                       : 16 bits
Stream size                      : 108 MiB (12%)
Language                         : English
Encoded date                     : UTC 2010-01-03 17:11:53
Tagged date                      : UTC 2010-01-03 21:55:29

Audio #2
ID                               : 3
Format                           : AAC
Format/Info                      : Advanced Audio Codec
Format version                   : Version 4
Format profile                   : LC
Format settings, SBR             : No
Codec ID                         : 40
Duration                         : 1h 34mn
Bit rate mode                    : Variable
Bit rate                         : 160 Kbps
Maximum bit rate                 : 252 Kbps
Channel(s)                       : 2 channels
Channel positions                : L R
Sampling rate                    : 48.0 KHz
Resolution                       : 16 bits
Stream size                      : 108 MiB (12%)
Language                         : Russian
Encoded date                     : UTC 2010-01-03 17:11:53
Tagged date                      : UTC 2010-01-03 21:55:29

Audio #3
ID                               : 4
Format                           : AAC
Format/Info                      : Advanced Audio Codec
Format version                   : Version 4
Format profile                   : LC
Format settings, SBR             : No
Codec ID                         : 40
Duration                         : 1h 34mn
Bit rate mode                    : Variable
Bit rate                         : 160 Kbps
Maximum bit rate                 : 249 Kbps
Channel(s)                       : 2 channels
Channel positions                : L R
Sampling rate                    : 48.0 KHz
Resolution                       : 16 bits
Stream size                      : 108 MiB (12%)
Language                         : Hungarian
Encoded date                     : UTC 2010-01-03 17:11:53
Tagged date                      : UTC 2010-01-03 21:55:29

